<svg xmlns="http://www.w3.org/2000/svg" viewBox="82.5 91.5 220 189" role="img" aria-hidden="true"><path fill="currentColor" fill-rule="evenodd" d="M135.5 97L150 96.5L161 99.5L173 106.5L185 117.5L197 106.5L212 98.5L220 96.5L239 97.5L257 106.5L266.5 116L275.5 134L277.5 145L276.5 160L274.5 168L272 170.5L269 170.5L264.5 168L266.5 157L266.5 140L260.5 125L248 112.5L236 107.5L219 107.5L210 110.5L202 115.5L186 130.5L184 130.5L162 111.5L151 107.5L134 107.5L128 109.5L119 114.5L110.5 123L105.5 132L102.5 144L103.5 160L110 176.5L143 176.5L155.5 139L159 134.5L163 134.5L166.5 139L183 192.5L186.5 180L190 176.5L209 176.5L211.5 179L211.5 183L209 185.5L196 185.5L194.5 187L187.5 210L183 214.5L180 213.5L177.5 210L161 155.5L152.5 182L149 186.5L117.5 187L130.5 203L149 221.5L185 252.5L193 246.5L197.5 248L199.5 254L187 263.5L183 263.5L179 260.5L141 227.5L123.5 210L104 186.5L91 186.5L87.5 183L87.5 180L91 176.5L98.5 176L93.5 162L92.5 141L95.5 129L99.5 121L105.5 113L114 105.5L125 99.5ZM243.5 178L261 178.5L275 184.5L282 190.5L284 185.5L289 185.5L290.5 187L290.5 205L288 207.5L273 207.5L269.5 203L273 198.5L276.5 198L270 192.5L258 187.5L242 187.5L226 194.5L215.5 206L210.5 219L210.5 234L212.5 241L217.5 250L226 258.5L237 264.5L246 266.5L259 265.5L267 262.5L272 259.5L283.5 247L288.5 234L289.5 219L294 217.5L297.5 220L297.5 236L294.5 246L289.5 255L275 268.5L256 275.5L238 274.5L221 266.5L206.5 250L200.5 230L201.5 216L204.5 207L210.5 197L224 184.5L232 180.5ZM246.5 198L250 197.5L253.5 201L253.5 224L270 224.5L272.5 227L272.5 231L270 233.5L247 233.5L244.5 232L243.5 202Z"/></svg>
