<?xml version="1.0" encoding="UTF-8"?>
<svg id="Layer_1" data-name="Layer 1" xmlns="http://www.w3.org/2000/svg" viewBox="0 0 120 120" fill="currentColor">
  <defs>
    <style>
      .cls-1 {
        fill: none;
      }
    </style>
  </defs>
  <path class="cls-1" d="M0,0h120v120H0V0ZM89.82,68.59l2.62-.48c.53-.1.54-2.14.01-2.27l-2.56-.64-3.5-.88.25-7.86c3.09-.21,5.14-.61,6.47-2.19-1.74-1.11-3.6-1.51-6.49-1.86l-.19-8.32,6.45-.85c-.58-2.12-.9-2.86-1.63-2.87l-4.46-.05-.18-8.61,6.46-1.77c-1.28-2.02-3.11-2.18-6.4-2.48-.11-1.83.05-6.95.27-8.49,4,.18,5.35-.11,6.07-2.74l-6.42-1.28-.14-8.69,6.55-.31c.71-.03,1.98-.84,2.44-1.3.31-.31-.95-2.17-1.39-2.17l-10.35.14-1.05,6.02h-34.31c-.77,0-2.75,1.4-2.33,1.79l1.93,1.81,34.96-.05.02,105.62,10.84.35c.68.02,2.03-2.41,1.41-2.7-.41-.19-1.85-.82-2.29-.83l-6.4-.14-.02-8.63,5.22-.23c.72-.03,1.5-2.57.8-2.72l-2.74-.59c-.71-.15-2.92-.1-3.06-.81s-.32-2.66-.26-3.38l.34-4.41c.05-.66,2.61-.05,3.23-.33l2.59-1.16c.53-.24.04-1.75-.54-1.84l-2.24-.36c-.69-.11-2.75,0-2.97-.66s-.52-2.6-.45-3.3l.43-4.39c.03-.27,7.92-1.28,5.9-2.77-3.04-2.25-5.54-1-5.96-2.37-.21-.68-.43-2.69-.37-3.47l.28-3.56c.06-.73,2.39-.77,3.13-.9ZM63.45,24.7c0-6.24-5.06-11.3-11.3-11.3s-11.3,5.06-11.3,11.3,5.06,11.3,11.3,11.3,11.3-5.06,11.3-11.3ZM65.57,109.86l.03-29.96c4.3-.14,7.32-1.93,7.32-5.91v-24.02c0-6.69-4.91-12.35-11.89-12.29l-19.06.16c-6.29.05-10.59,6.47-10.59,12.14v23.99c0,1.16.8,3.94,1.82,4.49s3.02.89,5.51,1.32l.03,30.36c0,3.12,2.05,6.26,4.41,7.35,2.75,1.27,6.55-.49,9.05-.45,2.86.04,6.38,1.89,9.51.19,2.02-1.09,3.87-4.47,3.88-7.36Z"/>
  <g>
    <path d="M89.82,68.59c-.74.14-3.07.17-3.13.9l-.28,3.56c-.06.78.16,2.79.37,3.47.41,1.37,2.92.13,5.96,2.37,2.02,1.49-5.87,2.5-5.9,2.77l-.43,4.39c-.07.7.22,2.65.45,3.3s2.27.55,2.97.66l2.24.36c.58.09,1.07,1.6.54,1.84l-2.59,1.16c-.62.28-3.18-.33-3.23.33l-.34,4.41c-.06.72.13,2.67.26,3.38s2.35.66,3.06.81l2.74.59c.7.15-.08,2.69-.8,2.72l-5.22.23.02,8.63,6.4.14c.44,0,1.88.64,2.29.83.61.29-.74,2.72-1.41,2.7l-10.84-.35-.02-105.62-34.96.05-1.93-1.81c-.42-.4,1.56-1.8,2.33-1.8h34.31s1.05-6.01,1.05-6.01l10.35-.14c.44,0,1.69,1.86,1.39,2.17-.46.47-1.73,1.27-2.44,1.3l-6.55.31.14,8.69,6.42,1.28c-.73,2.62-2.07,2.91-6.07,2.74-.23,1.54-.38,6.65-.27,8.49,3.29.3,5.13.46,6.4,2.48l-6.46,1.77.18,8.61,4.46.05c.73,0,1.05.75,1.63,2.87l-6.45.85.19,8.32c2.89.36,4.75.75,6.49,1.86-1.34,1.58-3.38,1.98-6.47,2.19l-.25,7.86,3.5.88,2.56.64c.53.13.52,2.17-.01,2.27l-2.62.48Z"/>
    <g>
      <path d="M65.57,109.86c0,2.89-1.85,6.27-3.88,7.36-3.13,1.69-6.64-.15-9.51-.19-2.5-.04-6.3,1.72-9.05.45-2.37-1.09-4.41-4.24-4.41-7.35l-.03-30.36c-2.49-.43-4.49-.77-5.51-1.32s-1.82-3.33-1.82-4.49v-23.99c0-5.67,4.31-12.08,10.6-12.14l19.06-.16c6.98-.06,11.89,5.61,11.89,12.29v24.02c0,3.99-3.02,5.78-7.32,5.91l-.03,29.96ZM53.93,78.58l.02,34.22c.86,1.12,4.26,2.11,5.38,1.5.93-.51,1.88-1.93,2.63-3.36l-.07-56.97c.49-.82,1.71-2.03,2.44-1.87.55.11,1.25,1.74,1.25,2.34v19.5c-.01.65,1.28,2.36,1.91,2.29s1.77-1.61,1.77-2.28l.03-23.93c0-4.98-3.35-8.74-8.35-8.77l-16.95-.08c-5.07-.03-8.98,3.56-8.98,8.89v23.85c0,.77,1.85,2.83,2.39,2.28.4-.41,1.34-1.94,1.34-2.62v-19.33c0-.66,1.46-2.77,1.85-2.32l1.76,2.03-.02,57.69c1.6,3.1,5.4,3.73,8,1.45l-.06-35.15,2.05-1.87c.39-.35,1.65,1.86,1.65,2.5Z"/>
      <path d="M63.45,24.7c0,6.24-5.06,11.3-11.3,11.3s-11.3-5.06-11.3-11.3,5.06-11.3,11.3-11.3,11.3,5.06,11.3,11.3ZM59.88,24.72c0-4.26-3.45-7.72-7.72-7.72s-7.72,3.45-7.72,7.72,3.45,7.72,7.72,7.72,7.72-3.45,7.72-7.72Z"/>
      <path class="cls-1" d="M53.93,78.58c0-.64-1.26-2.85-1.65-2.5l-2.05,1.87.06,35.15c-2.59,2.28-6.4,1.65-8-1.45l.02-57.69-1.76-2.03c-.39-.45-1.85,1.66-1.85,2.32v19.33c0,.68-.94,2.2-1.34,2.62-.54.55-2.38-1.51-2.38-2.28v-23.85c0-5.34,3.9-8.92,8.97-8.89l16.95.08c5,.03,8.36,3.79,8.35,8.77l-.03,23.93c0,.67-1.14,2.21-1.77,2.28s-1.92-1.64-1.92-2.29v-19.5c.01-.6-.69-2.22-1.24-2.34-.73-.15-1.95,1.05-2.44,1.87l.07,56.97c-.75,1.42-1.69,2.85-2.63,3.36-1.12.61-4.52-.38-5.38-1.5l-.02-34.22Z"/>
      <circle class="cls-1" cx="52.16" cy="24.72" r="7.72"/>
    </g>
  </g>
</svg>