<?xml version="1.0" encoding="UTF-8"?>
<svg id="Layer_1" data-name="Layer 1" xmlns="http://www.w3.org/2000/svg" viewBox="0 0 200 200" fill="currentColor">
  <defs>
    <style>
      .cls-1 {
        fill: none;
      }
    </style>
  </defs>
  <path d="M75.01,0l3.59,3.37c1.06,1.05-.11,4.94-.87,6.42-17.24,33.61-13.14,73.94,10.37,103.26,23.09,28.78,61.23,42.1,97.93,32.73,2.01-.51,5.25,1.11,6.13,2.55s.88,4.74-.34,6.51c-17.81,26.01-46.19,42.36-76.82,45.15l-16.81-.31C45.7,194.95,4.56,151.61,3.89,97.86,3.35,54.19,31.01,15.41,70.99,0h4.02ZM182.29,154.79c-39.64,6.68-77.28-8.06-100.5-37.48-24.15-30.6-29.1-71.24-12.53-107.73C39.18,22.17,18.2,50.04,12.95,80.09c-5.89,33.73,6.2,66.52,31.1,88.52,41.19,36.4,104.97,30.13,138.24-13.83Z"/>
  <path d="M192.55,59.93l-20.5.11c-1.54,0-4.15-1.93-4.57-3.16s.3-3.94,1.22-4.93l13.64-14.61-11.64-.13c-1.49-.02-3.83-2.36-3.9-3.79-.09-1.76,2.09-3.92,3.95-3.92h18.47c1.29,0,3.95,1.32,4.55,2.42.7,1.28.02,4.57-.98,5.63l-13.42,14.24,12.79.25c1.56.03,3.87,2.09,4.15,3.46s-2.07,4.41-3.77,4.42Z"/>
  <path d="M154.08,97.67l-18.97.11c-1.21,0-3.21-1.08-3.9-1.89-.82-.98-.8-4.56.11-5.55l12.75-13.8-10.29-.03c-1.59,0-3.84-2.41-3.83-3.95.01-1.37,2.32-3.6,3.77-3.6l17.34.03c1.31,0,3.74,1.18,4.32,2.18.67,1.17.26,4.32-.8,5.44l-12.56,13.2,12.79.33c1.12.03,2.75,2.31,2.85,3.36.12,1.27-2.01,4.16-3.6,4.17Z"/>
  <g>
    <path class="cls-1" d="M75.01,0h124.99s-.01,199.99-.01,199.99h-84.99c30.63-2.78,59.01-19.13,76.82-45.14,1.22-1.78,1.21-5.09.34-6.51s-4.12-3.06-6.13-2.55c-36.7,9.37-74.85-3.95-97.93-32.73-23.52-29.32-27.61-69.65-10.37-103.26.76-1.48,1.93-5.38.87-6.42L75.01,0ZM192.55,59.93c1.69,0,4.04-3.06,3.77-4.42s-2.58-3.43-4.15-3.46l-12.79-.25,13.42-14.24c1-1.06,1.68-4.35.98-5.63-.6-1.1-3.26-2.42-4.55-2.42h-18.47c-1.87,0-4.04,2.16-3.95,3.92.07,1.42,2.41,3.77,3.9,3.79l11.64.13-13.64,14.61c-.92.98-1.64,3.7-1.22,4.93s3.03,3.16,4.57,3.16l20.5-.11ZM154.08,97.67c1.58,0,3.71-2.9,3.6-4.17-.1-1.05-1.73-3.34-2.85-3.36l-12.79-.33,12.56-13.2c1.06-1.11,1.47-4.27.8-5.44-.57-1-3.01-2.18-4.32-2.18l-17.34-.03c-1.45,0-3.76,2.23-3.77,3.6-.02,1.54,2.23,3.95,3.83,3.95l10.29.03-12.75,13.8c-.91.98-.93,4.57-.11,5.55.68.81,2.68,1.9,3.9,1.89l18.97-.11Z"/>
    <path class="cls-1" d="M70.99,0C31.01,15.41,3.35,54.19,3.89,97.86c.67,53.75,41.81,97.09,94.3,101.84l-98.19.31V0h70.99Z"/>
    <path class="cls-1" d="M182.29,154.79c-33.27,43.96-97.05,50.22-138.24,13.83-24.9-22-36.99-54.79-31.1-88.52,5.25-30.05,26.23-57.93,56.3-70.51-16.57,36.49-11.61,77.12,12.53,107.73,23.22,29.42,60.86,44.16,100.5,37.48Z"/>
  </g>
</svg>