<?xml version="1.0" encoding="UTF-8"?>
<svg id="Layer_1" data-name="Layer 1" xmlns="http://www.w3.org/2000/svg" viewBox="0 0 200 200" fill="currentColor">
  <defs>
    <style>
      .cls-1 {
        fill: none;
      }
    </style>
  </defs>
  <path class="cls-1" d="M90.14,199.62l-90.14.38V0s199.99,0,199.99,0v200s-91.21-.4-91.21-.4c24.32-3,45.33-18.26,56.09-38.14,13.09-24.18,11.96-51.57-1.22-73.78-3.01-5.07-6.97-8.59-11.76-11.81,1.08,16.94-2.4,32.97-13.57,45.37-5.97,6.63-13.18,12.11-22.4,12.7-4.32.27-8.54-3.56-9.93-6.69-1.68-3.8-1.33-9.52,1.31-12.97l12.57-16.46c15.4-20.16,17.02-47.43,3.08-68.78-7.54-11.54-16.98-21-29.16-28.79-.48,18.26-2.99,32.84-15.85,45.7-7.98,7.98-16.02,15.01-24.79,22.3-18.76,15.58-28.79,38.31-27.18,62.91,1.5,22.89,14.2,44.59,34.71,57.24,9.29,5.73,18.81,9.94,29.46,11.22Z"/>
  <g>
    <path d="M108.78,199.6l-18.64.02c-10.65-1.28-20.17-5.49-29.46-11.22-20.51-12.65-33.2-34.35-34.71-57.24-1.61-24.6,8.42-47.33,27.18-62.91,8.78-7.29,16.81-14.32,24.79-22.3,12.86-12.86,15.37-27.45,15.85-45.7,12.18,7.79,21.62,17.25,29.16,28.79,13.94,21.35,12.32,48.62-3.08,68.78l-12.57,16.46c-2.63,3.45-2.99,9.17-1.31,12.97,1.39,3.13,5.61,6.97,9.93,6.69,9.23-.58,16.44-6.07,22.4-12.7,11.17-12.41,14.65-28.44,13.57-45.37,4.79,3.23,8.75,6.74,11.76,11.81,13.17,22.21,14.3,49.6,1.22,73.78-10.76,19.88-31.77,35.14-56.09,38.14ZM115.03,138.8c-6.45-.15-11.6-5.33-13.68-9.98-5.34-11.91,5.37-22.34,14.11-33.36,14.61-18.42,16.26-43.54,3.45-63.4-5.6-8.68-12.46-15.89-20.74-22.64-.72,15.56-5.82,28.97-16.27,39.5-8.3,8.36-16.6,15.71-25.77,23.4-19.2,16.09-28.56,40.08-24.28,65.62,3.71,22.09,18.9,41.56,41.02,51.48,27.81,12.48,60.74,3.81,80.02-19.19,19.51-23.27,22.17-57.65,4.31-83.07-1.17,24.62-20.68,52.15-42.16,51.65Z"/>
    <path class="cls-1" d="M115.03,138.8c21.48.5,40.99-27.03,42.16-51.65,17.87,25.42,15.2,59.8-4.31,83.07-19.28,23-52.21,31.67-80.02,19.19-22.11-9.92-37.31-29.39-41.02-51.48-4.28-25.54,5.08-49.53,24.28-65.62,9.17-7.69,17.47-15.04,25.77-23.4,10.45-10.53,15.55-23.94,16.27-39.5,8.28,6.75,15.14,13.96,20.74,22.64,12.8,19.86,11.16,44.98-3.45,63.4-8.74,11.02-19.45,21.45-14.11,33.36,2.09,4.65,7.23,9.83,13.68,9.98Z"/>
  </g>
</svg>