<?xml version="1.0" encoding="UTF-8"?>
<svg id="Layer_1" data-name="Layer 1" xmlns="http://www.w3.org/2000/svg" viewBox="0 0 120 120" fill="currentColor">
  <defs>
    <style>
      .cls-1 {
        fill: none;
      }
    </style>
  </defs>
  <path class="cls-1" d="M0,0h120v120H0V0ZM84.23,48.31l2.13,5.55c.19.48,1.71,1.33,1.78.81l.31-2.18c.17-1.18.93-3.27,1.95-3.53,1.45-.38,3.56.41,3.7,1.44l.37,2.59c.06.4,1.66,0,1.73-.39l.31-1.82.54-3.13c.11-.65,1.94-.68,3.21-.7l-.74,7.66c-4.8,1.62-9.23,2.82-14.32,4.03l.1,3.61,5.74-.27c2.68,5.58,5.1,10.93,7.18,16.56-23.47,12.68-49.98,12.5-72.98-.12,2.58-6.11,5.07-11.4,7.72-16.59,10.48,1.36,19.65,2,29.77,2.49,3.03,1.79,6.44,2.2,10.27,2.23l9.87-1.77c.7-10.74,2.09-18.85-4.73-17.87-13.15.74-25.27.66-37.9-.67,2.46-10.08.48-19.33-4.65-27.95-5.64-9.47-2.59-14.58-5.99-16.53-2.67-1.54-3.77,8.02,1.94,17.51,2.8,4.66,4.36,9.42,5.44,14.47-6.43.94-11.75,1.84-17.1,5.41-.63,4.76-.78,10.2,0,15.2.51,3.29,5.86,5.37,8.93,5.9-10.23,20.12-12.71,31.59-8.18,54.02.19.92,2.01,2.51,2.86,2.28,3.49-.97-4.09-18.63.64-34.05,23.68,12.48,50.93,12.87,75.27,0,2.74,9.94,1.91,20.54-.49,30.55-.22.92.66,4.01,1.42,3.46l2.37-1.71c5.24-18.84,2.27-37.04-8.16-54.18,3.07-.93,8.34-2.78,8.99-5.85,1.06-4.95.81-10.56.28-15.52-5.21-3.76-10.92-4.49-17.22-5.74,1.3-5.05,2.45-9.23,4.94-13.16,7.64-12.08,3.89-21.3,1.93-18.48-2.35,3.38-.47,7.9-5.34,16.17-5.39,9.16-7.87,19.96-3.91,30.28ZM63.89,114.42l-.04-7.33c0-.59-.9-1.91-1.34-2.32s-2.62.73-2.62,1.34l-.06,8.83c0,.67,2.01,1.75,2.66,1.57.43-.12,1.41-1.52,1.4-2.09Z"/>
  <path d="M63.89,114.42c0,.57-.97,1.97-1.4,2.09-.65.18-2.66-.9-2.66-1.57l.06-8.83c0-.6,2.18-1.75,2.62-1.34s1.33,1.73,1.34,2.32l.04,7.33Z"/>
  <path class="cls-1" d="M100.1,41.54c-3.96,2.42-8.08,3.3-12.87,3.98l-.95-7.79c4.64.71,8.07,1.4,13.82,3.81Z"/>
  <g>
    <path d="M84.23,48.31c-3.97-10.33-1.48-21.12,3.91-30.28,4.87-8.26,2.99-12.78,5.34-16.17,1.96-2.81,5.71,6.4-1.93,18.48-2.49,3.93-3.65,8.12-4.94,13.16,6.29,1.25,12.01,1.98,17.22,5.74.54,4.96.78,10.56-.28,15.52-.65,3.07-5.93,4.92-8.99,5.85,10.43,17.14,13.39,35.34,8.16,54.18l-2.37,1.71c-.76.55-1.64-2.54-1.42-3.46,2.4-10.01,3.22-20.61.49-30.55-24.34,12.87-51.59,12.48-75.27,0-4.73,15.43,2.85,33.08-.64,34.05-.85.24-2.67-1.36-2.86-2.28-4.53-22.43-2.05-33.89,8.18-54.02-3.07-.53-8.43-2.61-8.93-5.9-.77-5-.62-10.45,0-15.2,5.35-3.57,10.67-4.48,17.1-5.41-1.08-5.04-2.63-9.8-5.44-14.47C25.83,9.77,26.93.21,29.61,1.75c3.4,1.96.36,7.06,5.99,16.53,5.13,8.62,7.1,17.87,4.65,27.95,12.63,1.33,24.75,1.41,37.9.67,6.81-.98,5.43,7.13,4.73,17.87l-9.87,1.77c-3.83-.04-7.24-.45-10.27-2.23-10.11-.49-19.28-1.13-29.77-2.49-2.65,5.2-5.14,10.48-7.72,16.59,22.99,12.62,49.51,12.8,72.98.12-2.08-5.64-4.51-10.98-7.18-16.56l-5.74.27-.1-3.61c5.09-1.21,9.52-2.41,14.32-4.03l.74-7.66c-1.26.02-3.09.05-3.21.7l-.54,3.13-.31,1.82c-.07.39-1.67.79-1.73.39l-.37-2.59c-.15-1.03-2.26-1.81-3.7-1.44-1.01.26-1.78,2.36-1.95,3.53l-.31,2.18c-.07.52-1.6-.32-1.78-.81l-2.13-5.55ZM36.43,45.8l.79-8.25c-5.68,1.25-8.7,1.97-13.92,4.06,5.19,2.43,7.73,2.98,13.12,4.19ZM100.1,41.54c-5.74-2.41-9.18-3.11-13.82-3.81l.95,7.79c4.79-.68,8.91-1.56,12.87-3.98ZM61.03,51.53l-3.22-.18c-.61-.03-2.4-.22-2.5.37l-.37,2.32-.7,2.64c-.14.53-1.53-.62-1.69-1,.03-1.91-.6-4.52-1.84-4.68-1.83-.24-4.49.18-4.67,1.52l-.48,3.55c-.52,3.84-2.2-5.53-4.19-5.92-1.48-.29-3.66.8-3.96,2-.47,1.85-.64,2.33-.9,2.81-1.4,2.58-.79-5.4-2.97-5.98-1.13-.3-3.78.29-3.94,1.36l-.34,2.31c-.06.39-1.73.62-1.77.23l-.19-2.16c-.09-1.06-1.3-3.56-2.49-3.85-1.62.38-1.77,5.59-.54,6.89,5.19,5.49,28.53,6.22,40.81,6.16l3.81,2.5,10.47-.75-.34-10.95-4.98.81c-.86.14.69,3.39-1.66,5.36-.41.34-1.34-1.29-1.36-1.83l-.12-3.42c-.01-.43-6.26-.57-6.36.3l-.39,3.24c-.08.64-1,1.49-1.54,1.81-1.3.77-.7-5.4-1.58-5.45Z"/>
    <path class="cls-1" d="M61.03,51.53c.88.05.29,6.22,1.58,5.45.54-.32,1.46-1.17,1.54-1.81l.39-3.24c.1-.87,6.35-.72,6.36-.3l.12,3.42c.02.54.95,2.18,1.36,1.83,2.35-1.98.8-5.22,1.66-5.36l4.98-.81.34,10.95-10.47.75-3.81-2.5c-12.27.06-35.61-.68-40.81-6.16-1.23-1.3-1.09-6.51.54-6.89,1.19.29,2.4,2.79,2.49,3.85l.19,2.16c.03.39,1.71.16,1.77-.23l.34-2.31c.16-1.07,2.81-1.66,3.94-1.36,2.18.58,1.57,8.56,2.97,5.98.26-.49.43-.96.9-2.81.31-1.2,2.48-2.29,3.96-2,1.98.39,3.66,9.76,4.19,5.92l.48-3.55c.18-1.34,2.84-1.76,4.67-1.52,1.24.16,1.86,2.78,1.84,4.68.16.38,1.55,1.53,1.69,1l.7-2.64.37-2.32c.09-.58,1.89-.4,2.5-.37l3.22.18Z"/>
    <path class="cls-1" d="M36.43,45.8c-5.39-1.21-7.93-1.77-13.12-4.19,5.21-2.09,8.24-2.81,13.92-4.06l-.79,8.25Z"/>
  </g>
</svg>