<?xml version="1.0" encoding="UTF-8"?>
<svg id="Layer_1" data-name="Layer 1" xmlns="http://www.w3.org/2000/svg" viewBox="0 0 200 200" fill="currentColor">
  <defs>
    <style>
      .cls-1 {
        fill: none;
      }
    </style>
  </defs>
  <path class="cls-1" d="M0,200V0h200v200H0ZM37.7,88.04c-1.59-3.06-5.43-6.2-9.7-8.57l26.86-14.46c3.5-20.51,12.92-35.57,33.09-41.09,31.63-8.65,65.01,1.71,79.73,32.42,6.1,12.73,9.61,26.85,6.39,40.83-5.95,25.84-27.41,43.55-52.79,49.22-4.77,1.07-4.91,8.98-3.48,12.66,3.14,8.03,8.22,13.96,13.68,20.54,2.03,2.45,5.71,3.21,8,1.3,6.65-5.55-7.27-13.07-12.22-25.38,24.59-6.56,44.45-22.87,53.91-46.31,10.72-26.55.43-59.03-19.66-78.66-19.8-19.35-50.18-23.72-76.42-16.51-22.25,6.11-34.67,22.36-39.41,44.37-11.09,6.58-32.14,14-31.24,22.09.59,5.36,9.05,6.95,14.8,12.62l-8.19,18.07c-2.03,4.47-3.53,9.75-4,14.81-.83,8.82,4.83,16.52,13.36,18.7,14.18,3.61,25.59,1.12,34.99,13.99,10.18,13.94,8.22,24.65,15.95,23.19,8.79-1.66-1.32-21.92-10.02-32.13-6.01-7.05-13.61-10.89-22.75-12.33l-14.65-2.31c-5.13-.81-7.86-5.64-6.43-10.84,4.67-17.04,14.94-27.11,10.19-36.23ZM129.59,111.82c1.94-2.42,3.17-3.4,6.3-2.99,8.42,1.1,15.53-3.88,17.05-11.99,2.73-14.62-3.71-35.62-19.01-33.44-1.75-3.38-3.7-5.78-6.46-8.04-6.1-1.82-11.59-2.78-18.01-2.98-4.23-3.98-10.3-4.9-15.81-2.82-10.5,1.6-17.14,9-18.03,19.39-.56,6.59-.75,13.43,3.66,18.84,5,6.14,12.93,8.69,20.39,10.21-.03,9.33.89,15.73,9.15,19.11-5.63,7.55-14.52,17.66-10.45,23.11.93,1.24,4.22,2.17,5.81,1.55s2.61-3.19,3.67-5.07c10.77-19.09,19.48-22.07,21.74-24.89Z"/>
  <g>
    <path d="M37.7,88.04c4.74,9.12-5.52,19.19-10.19,36.23-1.43,5.21,1.3,10.03,6.43,10.84l14.65,2.31c9.13,1.44,16.74,5.28,22.75,12.33,8.69,10.2,18.8,30.47,10.02,32.13-7.73,1.46-5.77-9.25-15.95-23.19-9.4-12.87-20.81-10.38-34.99-13.99-8.53-2.17-14.19-9.88-13.36-18.7.48-5.06,1.97-10.34,4-14.81l8.19-18.07c-5.75-5.67-14.21-7.26-14.8-12.62-.9-8.09,20.15-15.51,31.24-22.09,4.75-22.01,17.16-38.26,39.41-44.37,26.24-7.21,56.63-2.84,76.42,16.51,20.09,19.63,30.38,52.11,19.66,78.66-9.46,23.44-29.32,39.75-53.91,46.31,4.95,12.31,18.86,19.83,12.22,25.38-2.29,1.91-5.97,1.15-8-1.3-5.47-6.58-10.55-12.51-13.68-20.54-1.43-3.67-1.3-11.59,3.48-12.66,25.38-5.67,46.84-23.38,52.79-49.22,3.22-13.99-.28-28.1-6.39-40.83-14.72-30.71-48.1-41.06-79.73-32.42-20.17,5.52-29.59,20.58-33.09,41.09l-26.86,14.46c4.27,2.37,8.11,5.51,9.7,8.57Z"/>
    <path d="M129.59,111.82c-2.27,2.82-10.98,5.79-21.74,24.89-1.06,1.89-2.13,4.48-3.67,5.07s-4.88-.31-5.81-1.55c-4.07-5.45,4.82-15.56,10.45-23.11-8.26-3.39-9.18-9.78-9.15-19.11-7.45-1.52-15.39-4.07-20.39-10.21-4.4-5.41-4.22-12.25-3.66-18.84.89-10.39,7.52-17.79,18.03-19.39,5.51-2.08,11.58-1.15,15.81,2.82,6.42.2,11.92,1.16,18.01,2.98,2.77,2.26,4.71,4.66,6.46,8.04,15.3-2.19,21.74,18.81,19.01,33.44-1.51,8.11-8.63,13.09-17.05,11.99-3.13-.41-4.36.57-6.3,2.99ZM141.88,96.99c3.04-7.47,1.15-16.99-3.92-22.75-4.41-.65-9.57-1.48-12.79-4.25l-2.81-5.67-13.28-1.7c-2.84-.36-5.02-1.5-8.01-3s-10.39.31-12.7,3.73c-3.23,4.77-4.36,13.43-.87,17.95,5.89,7.62,19.39,5.82,22.34,9.37,2.22,2.68-.91,9.16.78,16.32,12.74,1.37,11.91-7.65,15.68-9.29,3.49-1.51,10.72,3.71,15.56-.71Z"/>
    <path class="cls-1" d="M141.88,96.99c-4.83,4.42-12.07-.81-15.56.71-3.78,1.64-2.94,10.66-15.68,9.29-1.69-7.15,1.44-13.64-.78-16.32-2.95-3.55-16.45-1.75-22.34-9.37-3.5-4.52-2.36-13.18.87-17.95,2.32-3.42,9.6-5.3,12.7-3.73s5.17,2.64,8.01,3l13.28,1.7,2.81,5.67c3.22,2.77,8.38,3.6,12.79,4.25,5.06,5.77,6.95,15.28,3.92,22.75Z"/>
  </g>
</svg>