<svg xmlns="http://www.w3.org/2000/svg" viewBox="65.5 72.5 252 226" role="img" aria-hidden="true"><path fill="currentColor" fill-rule="evenodd" d="M215.5 78L219 77.5L221.5 80L222 88.5L270 88.5L270.5 79L272 77.5L276 77.5L277.5 79L278 88.5L295 88.5L300 90.5L305.5 96L307.5 101L307.5 182L306 183.5L303 184.5L299.5 181L299 121.5L192 121.5L191.5 137L187 137.5L184.5 136L183.5 104L185.5 97L190 91.5L197 88.5L213 88.5L213.5 80ZM197 96.5L191.5 102L192 113.5L299.5 113L299.5 101L294 96.5L278 96.5L277.5 103L275 105.5L270.5 104L270 96.5L222 96.5L221.5 103L219 105.5L216 105.5L213.5 103L213 96.5ZM222.5 135L232 134.5L234.5 137L234.5 146L232 148.5L223 148.5L220.5 146L220.5 137ZM248.5 135L258 134.5L260.5 136L260.5 146L258 148.5L249 148.5L247.5 147L246.5 140ZM274.5 135L285 134.5L286.5 136L286.5 147L285 148.5L275 148.5L273.5 147ZM109.5 144L120 143.5L129 145.5L140 151.5L146 157.5L156 149.5L168 144.5L189 144.5L202 150.5L212.5 160L221.5 178L222.5 199L219.5 210L214.5 220L205.5 232L149 287.5L145 287.5L85.5 229L76.5 216L71.5 203L70.5 183L72.5 175L78.5 163L85 155.5L93 149.5L101 145.5ZM109 151.5L95 157.5L84.5 168L78.5 183L79.5 203L85.5 216L91.5 224L147 278.5L199.5 227L206.5 218L211.5 209L214.5 199L215.5 190L213.5 178L206.5 165L200 158.5L188 152.5L168 152.5L157 158.5L148 168.5L146 168.5L135 157.5L128 153.5L121 151.5ZM222.5 159L232 158.5L234.5 161L234.5 170L232 172.5L227 172.5L225.5 171L220.5 161ZM248.5 159L258 158.5L260.5 160L260.5 170L258 172.5L249 172.5L247.5 171ZM274.5 159L285 158.5L286.5 160L286 171.5L276 172.5L273.5 171ZM129.5 178L133 177.5L135.5 180L147 219.5L152.5 205L157 199.5L160 200.5L165 206.5L197 206.5L198.5 208L198.5 212L194 214.5L167 214.5L161 213.5L159 211.5L150.5 233L148 235.5L144 235.5L142.5 234L131 194.5L124.5 211L122 213.5L105 214.5L95 213.5L93.5 212L93.5 208L95 206.5L117 206.5L126.5 182ZM299.5 193L305 192.5L307.5 195L307.5 212L306 214.5L302 214.5L300.5 213L300 206.5L275 228.5L243 248.5L189 272.5L179 274.5L176.5 272L179 267.5L218 252.5L256 232.5L276 218.5L291.5 205L294.5 201L288 201.5L285.5 199L287 194.5ZM287.5 229L289 228.5L298.5 239L308.5 258L312.5 276L312.5 290L311 292.5L306 292.5L304.5 290L303.5 272L294 272.5L292.5 271L294 266.5L301.5 265L300.5 259L295.5 249L293 247.5L285 253.5L281.5 251L281.5 248L289.5 242L289.5 240L283.5 234L283.5 232ZM267.5 249L270 248.5L272.5 251L271.5 255L238.5 283L238.5 289L235 292.5L227 293.5L222.5 289L221.5 283L227 276.5L235 276.5Z"/></svg>
