<?xml version="1.0" encoding="UTF-8"?>
<svg id="Layer_1" data-name="Layer 1" xmlns="http://www.w3.org/2000/svg" viewBox="0 0 120 120" fill="currentColor">
  <defs>
    <style>
      .cls-1 {
        fill: none;
      }
    </style>
  </defs>
  <path class="cls-1" d="M0,0h120v120H0V0ZM69.92,11.72c0-5.48-4.44-9.93-9.93-9.93s-9.93,4.44-9.93,9.93,4.44,9.93,9.93,9.93,9.93-4.44,9.93-9.93ZM78.99,118.04c8.61,0,5.55-16.68,1.33-27.63-.82-2.12-6.79-2.19-9.68-2.04l2.15-28.09,4.77-1.22c.97-.25,1.78-2.92,1.78-3.94l-.06-23.18c-.02-5.67-4.93-9.15-10.21-9.15h-18.08c-6.1,0-10.38,4.06-10.37,10.18l.05,22.12c0,1.09.78,3.72,1.75,3.96l4.79,1.21,2.03,28.33c-4.41-.55-9.1-.21-9.97,2.46-3.77,11.6-6.82,26.97,1.73,26.97h37.99Z"/>
  <g>
    <path d="M78.99,118.04h-37.99c-8.55,0-5.5-15.38-1.73-26.97.87-2.68,5.56-3.02,9.97-2.46l-2.03-28.33-4.79-1.21c-.97-.24-1.74-2.88-1.75-3.96l-.05-22.12c-.01-6.12,4.27-10.18,10.37-10.18h18.08c5.28,0,10.19,3.48,10.21,9.15l.06,23.18c0,1.02-.81,3.69-1.78,3.94l-4.77,1.22-2.15,28.09c2.89-.15,8.86-.09,9.68,2.04,4.22,10.95,7.28,27.63-1.33,27.63ZM64.55,93.39l2.95-1.78,2.49-32.63.36-25.33,2.6.53.17,21.47c0,.71,2.08,2.06,2.38,1.49.21-.39.9-2.02.9-2.67l-.03-22.39c0-3.52-3.19-6.36-6.21-6.36h-20.33c-3,0-6.21,2.91-6.22,6.31l-.05,22.6c0,.91,1.23,2.48,1.82,2.74.39.17,1.48-1.22,1.48-1.69l.19-21.53,2.47-.5.63,26.41,2.36,31.24c.11,1.46,3.96,2.64,4.8,1.72,3.87-4.21-.34-25.03,2.82-35.87,2.38,11.84-1.38,39.75,4.42,36.25ZM78.25,91.61l-7.57-.32c-1.26,2.34-2.85,4.7-4.41,4.59l-6.33-.47-6.19.51c-1.38.11-2.87-2.1-4.24-3.87-1.26-1.62-6.05-1.01-8.07.27l-3.28,17.36,40.85.29c.72-.21,2.77-2.06,2.59-2.88l-3.36-15.48ZM80.94,114.99l.88-2.31-41.42.31c-1.65-1.59-2.64-1.13-1.62,1.96l42.16.04Z"/>
    <path d="M69.92,11.72c0,5.48-4.44,9.93-9.93,9.93s-9.93-4.44-9.93-9.93S54.51,1.79,59.99,1.79s9.93,4.44,9.93,9.93ZM66.98,11.71c0-3.86-3.13-6.98-6.98-6.98s-6.98,3.13-6.98,6.98,3.13,6.98,6.98,6.98,6.98-3.13,6.98-6.98Z"/>
    <path class="cls-1" d="M64.55,93.39c-5.8,3.5-2.04-24.41-4.42-36.25-3.16,10.84,1.05,31.66-2.82,35.87-.84.91-4.69-.27-4.8-1.72l-2.36-31.24-.63-26.41-2.47.5-.19,21.53c0,.48-1.09,1.86-1.48,1.69-.59-.26-1.82-1.82-1.82-2.74l.05-22.6c0-3.4,3.21-6.31,6.22-6.31h20.33c3.02,0,6.21,2.84,6.21,6.36l.03,22.39c0,.65-.7,2.28-.9,2.67-.3.57-2.38-.78-2.38-1.49l-.17-21.47-2.6-.53-.36,25.33-2.49,32.63-2.95,1.78Z"/>
    <path class="cls-1" d="M78.25,91.61l3.36,15.48c.18.82-1.87,2.67-2.59,2.88l-40.85-.29,3.28-17.36c2.01-1.28,6.81-1.89,8.07-.27,1.37,1.76,2.86,3.98,4.24,3.87l6.19-.51,6.33.47c1.56.12,3.15-2.25,4.41-4.59l7.57.32ZM70.39,108.01c.19-7.08-4.84-10.2-10.4-10.09-5.96-.3-11.04,3.99-10.22,10.19l20.62-.1Z"/>
    <path class="cls-1" d="M80.94,114.99l-42.16-.04c-1.02-3.09-.03-3.55,1.62-1.96l41.42-.31-.88,2.31Z"/>
    <circle class="cls-1" cx="60" cy="11.71" r="6.98"/>
    <path d="M70.39,108.01l-20.62.1c-.82-6.2,4.26-10.49,10.22-10.19,5.56-.11,10.59,3.01,10.4,10.09ZM59.94,101.83c1.02,1.95,1.74,4,2.79,4.32s3.81.08,5.53-.17c-.82-4.04-4.15-6.33-7.92-6.6-3.24-.23-7.13,1.89-8.6,6.03.32.69,4.4,1.48,5.46.71s1.82-2.51,2.73-4.29Z"/>
    <path class="cls-1" d="M59.94,101.83c-.91,1.78-1.67,3.51-2.73,4.29s-5.14-.02-5.46-.71c1.46-4.15,5.36-6.26,8.6-6.03,3.76.27,7.09,2.56,7.92,6.6-1.73.25-4.48.49-5.53.17s-1.77-2.36-2.79-4.32Z"/>
  </g>
</svg>