<?xml version="1.0" encoding="utf-8"?>
<!-- Generator: Adobe Illustrator 26.3.1, SVG Export Plug-In . SVG Version: 6.00 Build 0)  -->
<svg version="1.1" id="Layer_1" xmlns="http://www.w3.org/2000/svg" xmlns:xlink="http://www.w3.org/1999/xlink" x="0px" y="0px"
	 viewBox="0 0 37.5 34" style="enable-background:new 0 0 37.5 34;" xml:space="preserve">
<style type="text/css">
	.st0{fill:#3F7EFD;}
	.st1{fill:url(#Shape_00000049209033767668761380000011818498653740054950_);}
</style>
<g id="Symbols">
	<g id="Top-Nav" transform="translate(-52.000000, -38.000000)">
		<g id="DFX-logo-v2" transform="translate(52.000000, 38.000000)">
			<g id="Group">
				<circle id="Oval" class="st0" cx="8.5" cy="17" r="5.4"/>
				
					<linearGradient id="Shape_00000078750599595264551740000001608619290663475353_" gradientUnits="userSpaceOnUse" x1="-417.8406" y1="289.3771" x2="-416.8406" y2="289.3771" gradientTransform="matrix(21.5705 0 0 -32.3558 9027.0049 9380.0322)">
					<stop  offset="0.2369" style="stop-color:#FD6B7A"/>
					<stop  offset="0.2939" style="stop-color:#F16C83"/>
					<stop  offset="0.3979" style="stop-color:#D07099"/>
					<stop  offset="0.5374" style="stop-color:#9A75BE"/>
					<stop  offset="0.7053" style="stop-color:#517CF0"/>
					<stop  offset="0.7452" style="stop-color:#3F7EFD"/>
				</linearGradient>
				
					<path id="Shape_00000055677915343392528730000006351340885126008745_" style="fill:url(#Shape_00000078750599595264551740000001608619290663475353_);" d="
					M30.1,11.6c-3,0-5.4-2.4-5.4-5.4s-2.4-5.4-5.4-5.4S14,3.2,14,6.2s2.4,5.4,5.4,5.4s5.4,2.4,5.4,5.4s-2.4,5.4-5.4,5.4
					S14,24.8,14,27.8s2.4,5.4,5.4,5.4s5.4-2.4,5.4-5.4s2.4-5.4,5.4-5.4c3,0,5.4-2.4,5.4-5.4S33.1,11.6,30.1,11.6z"/>
			</g>
		</g>
	</g>
</g>
</svg>
