<svg id="Line" xmlns="http://www.w3.org/2000/svg" viewBox="0 0 64 64"><title>1</title><path d="M55,6H9a5.00588,5.00588,0,0,0-5,5V53a5.00588,5.00588,0,0,0,5,5H55a5.00588,5.00588,0,0,0,5-5V11A5.00588,5.00588,0,0,0,55,6Zm3,47a3.00328,3.00328,0,0,1-3,3H9a3.00328,3.00328,0,0,1-3-3V17.64307H58Zm0-37.35693H6V11A3.00328,3.00328,0,0,1,9,8H55a3.00328,3.00328,0,0,1,3,3Z"/><path d="M52,10.82141a1.00019,1.00019,0,0,0,.00006,2A1.00019,1.00019,0,0,0,52,10.82141Z"/><path d="M48,10.82141a1.00019,1.00019,0,0,0,.00006,2A1.00019,1.00019,0,0,0,48,10.82141Z"/><path d="M44,10.82141a1.00019,1.00019,0,0,0,.00006,2A1.00019,1.00019,0,0,0,44,10.82141Z"/><path d="M20,10.82129H12a1.00019,1.00019,0,0,0,.00006,2H20A1.00019,1.00019,0,0,0,20,10.82129Z"/><path d="M32,50.82129a14.01572,14.01572,0,0,0,14-14c-.76887-18.57294-27.234-18.56753-28,.0001A14.01575,14.01575,0,0,0,32,50.82129Zm0-2c-1.14813,0-2.614-2.30744-3.37091-6.29846,1.11291.11163,2.2467.17346,3.37091.17346s2.258-.06183,3.37091-.17346C34.614,46.51385,33.14813,48.82129,32,48.82129Zm-3.67493-8.32507a34.28092,34.28092,0,0,1,0-7.34986,34.28009,34.28009,0,0,1,7.34984,0,34.28074,34.28074,0,0,1,0,7.34984A34.282,34.282,0,0,1,28.32507,40.49622Zm7.1294,7.813a18.31834,18.31834,0,0,0,1.97265-6.06079,18.31848,18.31848,0,0,0,6.0608-1.97265A12.04429,12.04429,0,0,1,35.45447,48.3092ZM44,36.82129c0,1.14813-2.30743,2.614-6.29846,3.37091.11163-1.11292.17346-2.2467.17346-3.37091s-.06183-2.258-.17346-3.37091C41.69257,34.20728,44,35.67316,44,36.82129Zm-.51208-3.45447a18.31848,18.31848,0,0,0-6.0608-1.97265,18.31848,18.31848,0,0,0-1.97265-6.0608A12.04433,12.04433,0,0,1,43.48792,33.36682ZM32,24.82129c1.14813,0,2.614,2.30743,3.37091,6.29846-1.11291-.11163-2.2467-.17346-3.37091-.17346s-2.258.06183-3.37091.17346C29.386,27.12872,30.85187,24.82129,32,24.82129Zm-3.45447.51208a18.31848,18.31848,0,0,0-1.97265,6.0608,18.31848,18.31848,0,0,0-6.0608,1.97265A12.04433,12.04433,0,0,1,28.54553,25.33337ZM20,36.82129c0-1.14813,2.30743-2.614,6.29846-3.37091-.11163,1.11291-.17346,2.2467-.17346,3.37091s.06183,2.258.17346,3.37091C22.30743,39.4353,20,37.96942,20,36.82129Zm6.57288,5.42712a18.31834,18.31834,0,0,0,1.97265,6.06079,12.04429,12.04429,0,0,1-8.03345-8.03344A18.31848,18.31848,0,0,0,26.57288,42.24841Z"/></svg>