<?xml version="1.0" encoding="utf-8"?>
<!-- Generator: Adobe Illustrator 27.0.0, SVG Export Plug-In . SVG Version: 6.00 Build 0)  -->
<svg version="1.1" id="Glyph" xmlns="http://www.w3.org/2000/svg" xmlns:xlink="http://www.w3.org/1999/xlink" x="0px" y="0px"
	 viewBox="0 0 48 48" enable-background="new 0 0 48 48" xml:space="preserve">
<g>
	<path d="M33.47748,32.25c-1.01984,4.29309-4.87695,7.5-9.47748,7.5s-8.45764-3.20691-9.47748-7.5H10
		c-0.90997,0-1.79999-0.12-2.65002-0.34003c0.30005,1.03003,1.19,1.83002,2.29004,1.97003
		c1.62,0.20996,2.46997,2.19995,1.45996,3.52997c-0.82996,1.06-0.71997,2.65002,0.24005,3.60999l1.63995,1.64001
		c0.97003,0.98004,2.52002,1.08002,3.60004,0.25c1.32996-1.01996,3.32001-0.19,3.53998,1.45001
		c0.16998,1.35999,1.34003,2.39001,2.72003,2.39001h2.31995c1.38,0,2.55005-1.03003,2.72003-2.39001
		c0.21002-1.60999,2.21002-2.46997,3.52997-1.46002c1.06,0.83002,2.65002,0.72003,3.61005-0.23999
		c0.04999-0.04999,1.63995-1.64001,1.63995-1.64001c0.98004-0.96997,1.09003-2.51996,0.25-3.59998
		c-1.01996-1.32001-0.19995-3.31,1.45001-3.53998c1.10004-0.14001,1.98999-0.94,2.29004-1.97003
		C39.79999,32.13,38.90997,32.25,38,32.25H33.47748z"/>
	<path d="M24,38.25c3.76807,0,6.94733-2.5426,7.93018-6H16.06982C17.05267,35.7074,20.23193,38.25,24,38.25z"/>
	<path d="M18.5,15.75c-0.96484,0-1.75,0.78516-1.75,1.75v2.75h3.5V17.5C20.25,16.53516,19.46484,15.75,18.5,15.75z"/>
	<path d="M26.5,15.75h-1.75v3.5h1.75c0.96484,0,1.75-0.78516,1.75-1.75S27.46484,15.75,26.5,15.75z"/>
	<path d="M39.05469,13.31543c-0.22363-2.93262-1.91309-5.56934-4.52441-6.99316c-2.1084-1.15674-4.57422-1.38672-6.84766-0.6543
		c-2.86133-3.95947-8.09473-5.49463-12.68115-3.64404c-4.61084,1.8418-7.31348,6.54199-6.65283,11.3833
		C4.24951,14.18018,1.25,17.74268,1.25,22c0,4.82471,3.92529,8.75,8.75,8.75h28c4.8252,0,8.75-3.92529,8.75-8.75
		C46.75,17.52197,43.42188,13.83252,39.05469,13.31543z M21.75,24c0,0.41406-0.33594,0.75-0.75,0.75s-0.75-0.33594-0.75-0.75v-2.25
		h-3.5V24c0,0.41406-0.33594,0.75-0.75,0.75s-0.75-0.33594-0.75-0.75v-6.5c0-1.79199,1.45801-3.25,3.25-3.25s3.25,1.45801,3.25,3.25
		V24z M26.5,20.75h-1.75V24c0,0.41406-0.33594,0.75-0.75,0.75s-0.75-0.33594-0.75-0.75v-9c0-0.41406,0.33594-0.75,0.75-0.75h2.5
		c1.79199,0,3.25,1.45801,3.25,3.25S28.29199,20.75,26.5,20.75z M32.75,24c0,0.41406-0.33594,0.75-0.75,0.75
		s-0.75-0.33594-0.75-0.75v-9c0-0.41406,0.33594-0.75,0.75-0.75s0.75,0.33594,0.75,0.75V24z"/>
</g>
</svg>
