<?xml version="1.0" encoding="utf-8"?>
<!-- Generator: Adobe Illustrator 27.2.0, SVG Export Plug-In . SVG Version: 6.00 Build 0)  -->
<svg version="1.1" id="Line_gradient" xmlns="http://www.w3.org/2000/svg" xmlns:xlink="http://www.w3.org/1999/xlink" x="0px"
	 y="0px" viewBox="0 0 48 48" enable-background="new 0 0 48 48" xml:space="preserve">
<g>
	<path d="M37.75,13V9.25h-6v-1h-4.08002C27.33002,6.53998,25.81,5.25,24,5.25s-3.33002,1.28998-3.66998,3H16.25v1h-6v33.5h27.5V14.5
		h-1.5v26.75h-24.5v-30.5h4.5v1.5h-3v27.5H16v-1.5h-1.25v-24.5h18.5v24.5H17.5v1.5h17.25v-27.5h-3v-1.5h4.5V13H37.75z M30.25,12.25
		h-12.5v-2.5h4V9c0-1.23999,1.01001-2.25,2.25-2.25S26.25,7.76001,26.25,9v0.75h4V12.25z"/>
	<path d="M21.75,16.25v3.5h-3.5v4.5h3.5v3.5h4.5v-3.5h3.5v-4.5h-3.5v-3.5H21.75z M28.25,21.25v1.5h-3.5v3.5h-1.5v-3.5h-3.5v-1.5h3.5
		v-3.5h1.5v3.5H28.25z"/>
	<rect x="17.25" y="30.25" width="13.5" height="1.5"/>
	<rect x="17.25" y="34.25" width="13.5" height="1.5"/>
</g>
</svg>
