<?xml version="1.0" encoding="utf-8"?>
<!-- Generator: Adobe Illustrator 24.0.0, SVG Export Plug-In . SVG Version: 6.00 Build 0)  -->
<svg version="1.1" id="outline" xmlns="http://www.w3.org/2000/svg" xmlns:xlink="http://www.w3.org/1999/xlink" x="0px" y="0px"
	 viewBox="0 0 512 512" style="enable-background:new 0 0 512 512;" xml:space="preserve">
<path d="M434,48h-55.4c-9-18.9-27.9-31.3-49-32c-0.2,0-0.4,0-0.6,0H224c-22.3,0-41.6,13.1-50.6,32H112c-22.1,0-40,17.9-40,40v366
	c0,0.2,0,0.4,0,0.7c0,0.4,0,0.9,0,1.3c0,22.1,17.9,40,40,40h312h10c16.5,0,30-13.5,30-30V78C464,61.5,450.5,48,434,48z M328.6,32
	c12.6,0.2,24.1,6.3,31.4,16h-63C304.2,38.4,315.7,32.2,328.6,32z M208,238l18.7-11.3l49.4,28.2c2.5,1.4,5.5,1.4,8,0
	c2.5-1.4,4-4,4-6.9l0.3-48H360v72H208V238z M224,32h65.8c-5.9,5.8-10.6,12.9-13.5,20.9c-0.1,0.3-0.2,0.6-0.3,0.9
	c-1.9,5.4-3,11.3-3.1,17.3c0,0.3-0.1,0.6-0.1,0.9l-0.9,162.3l-41.6-23.8c-1.2-0.7-2.6-1.1-4-1.1c-1.4,0-2.9,0.4-4.1,1.2L184,233.8
	V72C184,49.9,201.9,32,224,32z M168.6,64c-0.4,2.6-0.6,5.3-0.6,8v176c0,2.9,1.6,5.5,4.1,7c1.2,0.7,2.6,1,3.9,1
	c1.4,0,2.9-0.4,4.1-1.2l11.9-7.2V280c0,4.4,3.6,8,8,8h168c4.4,0,8-3.6,8-8v-88c0-4.4-3.6-8-8-8h-79.7L289,72.9c0-0.3,0-0.6,0-0.9
	c0-2.7,0.3-5.4,0.8-8h83.4c0,0,0,0,0,0c0,0,0,0,0,0H434c7.7,0,14,6.3,14,14v324c0,7.7-6.3,14-14,14h-10H136V64H168.6z M112,64h8v352
	h-8c-9,0-17.3,3-24,8V88C88,74.8,98.8,64,112,64z M88,456c0-13.2,10.8-24,24-24h304v16h-80c-4.4,0-8,3.6-8,8s3.6,8,8,8h80v16H112
	C98.8,480,88,469.2,88,456z M434,480h-2v-48h2c5.1,0,9.8-1.3,14-3.5V466C448,473.7,441.7,480,434,480z"/>
<path d="M236,119.3h-16c-2.2,0-4,1.8-4,4V180c0,2.2,1.8,4,4,4h16c2.2,0,4-1.8,4-4v-56.7C240,121.1,238.2,119.3,236,119.3z"/>
<circle cx="227.5" cy="92.7" r="14.5"/>
<path d="M136,448h-24c-4.4,0-8,3.6-8,8s3.6,8,8,8h24c4.4,0,8-3.6,8-8S140.4,448,136,448z"/>
<path d="M184,448h-16c-4.4,0-8,3.6-8,8s3.6,8,8,8h16c4.4,0,8-3.6,8-8S188.4,448,184,448z"/>
<path d="M304,448h-88c-4.4,0-8,3.6-8,8s3.6,8,8,8h88c4.4,0,8-3.6,8-8S308.4,448,304,448z"/>
<path d="M224,320h24c4.4,0,8-3.6,8-8s-3.6-8-8-8h-24c-4.4,0-8,3.6-8,8S219.6,320,224,320z"/>
<path d="M280,320h56c4.4,0,8-3.6,8-8s-3.6-8-8-8h-56c-4.4,0-8,3.6-8,8S275.6,320,280,320z"/>
<path d="M320,336h-88c-4.4,0-8,3.6-8,8s3.6,8,8,8h88c4.4,0,8-3.6,8-8S324.4,336,320,336z"/>
<path d="M312,80c-4.4,0-8,3.6-8,8v32c0,4.4,3.6,8,8,8s8-3.6,8-8V88C320,83.6,316.4,80,312,80z"/>
<path d="M312,144c-4.4,0-8,3.6-8,8v8c0,4.4,3.6,8,8,8s8-3.6,8-8v-8C320,147.6,316.4,144,312,144z"/>
</svg>
