<svg id="Icons" xmlns="http://www.w3.org/2000/svg" viewBox="0 0 60 60"><path d="M11,36H49a10.994,10.994,0,0,0,1.93-21.818A9.821,9.821,0,0,0,51,13,9.984,9.984,0,0,0,35.108,4.936a14.988,14.988,0,0,0-26.084,9.25A11,11,0,0,0,11,36Zm-.9-19.945A1.059,1.059,0,0,0,11,15,12.992,12.992,0,0,1,34.2,6.951a1,1,0,0,0,1.455.12A7.983,7.983,0,0,1,49,13a7.555,7.555,0,0,1-.211,1.8,1,1,0,0,0,.9,1.236A8.994,8.994,0,0,1,49,34H11a8.995,8.995,0,0,1-.9-17.945Z"/><path d="M39.962,46.733l-1.15-.459a9.038,9.038,0,0,0-.654-1.578l.488-1.142a1.568,1.568,0,0,0-.243-1.643,10.9,10.9,0,0,0-1.318-1.318,1.56,1.56,0,0,0-1.642-.24l-1.14.487a9.1,9.1,0,0,0-1.577-.655l-.461-1.154a1.578,1.578,0,0,0-1.322-.988,10.618,10.618,0,0,0-1.89,0,1.581,1.581,0,0,0-1.32.992l-.459,1.15a9.1,9.1,0,0,0-1.577.655l-1.136-.486a1.56,1.56,0,0,0-1.647.24A10.926,10.926,0,0,0,21.6,41.913a1.57,1.57,0,0,0-.241,1.643l.488,1.14a9.038,9.038,0,0,0-.654,1.578l-1.154.461a1.574,1.574,0,0,0-.987,1.31,9.665,9.665,0,0,0,0,1.909,1.578,1.578,0,0,0,.991,1.313l1.15.459a9.038,9.038,0,0,0,.654,1.578l-.488,1.142a1.568,1.568,0,0,0,.243,1.643,10.9,10.9,0,0,0,1.318,1.318,1.563,1.563,0,0,0,1.642.24l1.14-.487a9.1,9.1,0,0,0,1.577.655l.461,1.154a1.578,1.578,0,0,0,1.322.988c.326.028.652.043.969.043s.63-.015.921-.043a1.581,1.581,0,0,0,1.32-.992l.459-1.15A9.1,9.1,0,0,0,34.3,57.16l1.136.486a1.564,1.564,0,0,0,1.647-.24,10.926,10.926,0,0,0,1.319-1.319,1.57,1.57,0,0,0,.241-1.643l-.488-1.14a9.038,9.038,0,0,0,.654-1.578l1.154-.461a1.574,1.574,0,0,0,.987-1.31,9.681,9.681,0,0,0,0-1.9A1.581,1.581,0,0,0,39.962,46.733ZM38.983,49.5l-1.372.548a1,1,0,0,0-.6.688,7.221,7.221,0,0,1-.824,1.987,1,1,0,0,0-.063.908L36.706,55a8.9,8.9,0,0,1-.715.711l-1.357-.579a1,1,0,0,0-.908.063,7.181,7.181,0,0,1-1.985.824,1,1,0,0,0-.689.6L30.5,57.986a8.5,8.5,0,0,1-1.009,0l-.547-1.371a1,1,0,0,0-.689-.6,7.181,7.181,0,0,1-1.985-.824,1,1,0,0,0-.908-.063l-1.36.581a8.925,8.925,0,0,1-.711-.716l.58-1.357a1,1,0,0,0-.063-.908,7.221,7.221,0,0,1-.824-1.987,1,1,0,0,0-.6-.688L21.017,49.5a7.706,7.706,0,0,1,0-1.008l1.372-.548a1,1,0,0,0,.6-.688,7.234,7.234,0,0,1,.824-1.987,1,1,0,0,0,.063-.908L23.294,43a9.067,9.067,0,0,1,.715-.71l1.357.579a1,1,0,0,0,.908-.063,7.181,7.181,0,0,1,1.985-.824,1,1,0,0,0,.689-.6l.548-1.372a8.711,8.711,0,0,1,1.009,0l.547,1.371a1,1,0,0,0,.689.6,7.181,7.181,0,0,1,1.985.824,1,1,0,0,0,.908.063l1.36-.581a8.925,8.925,0,0,1,.711.716l-.58,1.357a1,1,0,0,0,.063.908,7.234,7.234,0,0,1,.824,1.987,1,1,0,0,0,.6.688l1.372.548A7.706,7.706,0,0,1,38.983,49.5Z"/><path d="M30,44a5,5,0,1,0,5,5A5.006,5.006,0,0,0,30,44Zm0,8a3,3,0,1,1,3-3A3,3,0,0,1,30,52Z"/><path d="M.937,48.433l.751.3a7.108,7.108,0,0,0,.417,1.006l-.318.746a1.419,1.419,0,0,0,.22,1.495A8.343,8.343,0,0,0,3.025,53a1.417,1.417,0,0,0,1.491.219l.747-.32a6.915,6.915,0,0,0,1,.417l.3.755a1.429,1.429,0,0,0,1.2.9c.2.017.46.033.752.033.224,0,.465-.009.711-.033a1.43,1.43,0,0,0,1.2-.9l.3-.753a6.915,6.915,0,0,0,1.005-.417l.743.318a1.417,1.417,0,0,0,1.5-.219,8.294,8.294,0,0,0,1.015-1.016,1.418,1.418,0,0,0,.222-1.494l-.319-.747a7.108,7.108,0,0,0,.417-1.006l.76-.3a1.425,1.425,0,0,0,.891-1.187,7.3,7.3,0,0,0,0-1.471,1.431,1.431,0,0,0-.9-1.2l-.751-.3a7.108,7.108,0,0,0-.417-1.006l.318-.746a1.417,1.417,0,0,0-.221-1.495A8.407,8.407,0,0,0,13.975,40a1.423,1.423,0,0,0-1.491-.219l-.747.32a6.915,6.915,0,0,0-1.005-.417l-.3-.755a1.429,1.429,0,0,0-1.2-.9,8.025,8.025,0,0,0-1.463,0,1.43,1.43,0,0,0-1.2.9l-.3.753a6.915,6.915,0,0,0-1,.417l-.743-.318a1.425,1.425,0,0,0-1.5.22,8.421,8.421,0,0,0-1.014,1.015,1.418,1.418,0,0,0-.222,1.494l.319.747a7.108,7.108,0,0,0-.417,1.006l-.76.3a1.425,1.425,0,0,0-.891,1.187,7.32,7.32,0,0,0,0,1.48A1.432,1.432,0,0,0,.937,48.433ZM2,46.294l.88-.351a1,1,0,0,0,.6-.689,5.1,5.1,0,0,1,.589-1.419,1,1,0,0,0,.064-.909l-.373-.872c.09-.1.188-.193.293-.29l.87.371a1,1,0,0,0,.909-.064,5.106,5.106,0,0,1,1.418-.589,1,1,0,0,0,.689-.6L8.3,40c.134-.005.272-.005.41,0l.352.879a1,1,0,0,0,.689.6,5.106,5.106,0,0,1,1.418.589,1,1,0,0,0,.909.064l.872-.372c.095.09.192.186.29.293l-.372.87a1,1,0,0,0,.064.909,5.1,5.1,0,0,1,.589,1.419,1,1,0,0,0,.6.689L15,46.3q.007.2,0,.411l-.88.351a1,1,0,0,0-.6.689,5.1,5.1,0,0,1-.589,1.419,1,1,0,0,0-.064.909l.373.873c-.09.1-.187.192-.293.29l-.87-.372a1,1,0,0,0-.909.064,5.106,5.106,0,0,1-1.418.589,1,1,0,0,0-.689.6L8.705,53C8.573,53,8.434,53,8.3,53l-.352-.879a1,1,0,0,0-.689-.6,5.106,5.106,0,0,1-1.418-.589,1,1,0,0,0-.909-.064l-.872.372c-.1-.09-.192-.186-.29-.292l.372-.871a1,1,0,0,0-.064-.909,5.1,5.1,0,0,1-.589-1.419,1,1,0,0,0-.6-.689L2,46.705Q2,46.5,2,46.294Z"/><path d="M8.5,50A3.5,3.5,0,1,0,5,46.5,3.5,3.5,0,0,0,8.5,50Zm0-5A1.5,1.5,0,1,1,7,46.5,1.5,1.5,0,0,1,8.5,45Z"/><path d="M59.063,44.567l-.751-.3a7.108,7.108,0,0,0-.417-1.006l.318-.746a1.417,1.417,0,0,0-.221-1.495A8.407,8.407,0,0,0,56.975,40a1.422,1.422,0,0,0-1.491-.219l-.747.32a6.915,6.915,0,0,0-1.005-.417l-.3-.755a1.429,1.429,0,0,0-1.2-.9,8.025,8.025,0,0,0-1.463,0,1.43,1.43,0,0,0-1.2.9l-.3.753a6.915,6.915,0,0,0-1.005.417l-.743-.318a1.425,1.425,0,0,0-1.5.22,8.421,8.421,0,0,0-1.014,1.015,1.418,1.418,0,0,0-.222,1.494l.319.747a7.108,7.108,0,0,0-.417,1.006l-.76.3a1.425,1.425,0,0,0-.891,1.187,7.32,7.32,0,0,0,0,1.48,1.432,1.432,0,0,0,.9,1.2l.751.3a7.108,7.108,0,0,0,.417,1.006l-.318.746a1.419,1.419,0,0,0,.22,1.495A8.343,8.343,0,0,0,46.025,53a1.417,1.417,0,0,0,1.491.219l.747-.32a6.915,6.915,0,0,0,1.005.417l.3.755a1.429,1.429,0,0,0,1.2.9c.2.017.46.033.752.033.224,0,.465-.009.711-.033a1.43,1.43,0,0,0,1.2-.9l.3-.753a6.915,6.915,0,0,0,1.005-.417l.743.318a1.417,1.417,0,0,0,1.5-.219,8.294,8.294,0,0,0,1.015-1.016,1.418,1.418,0,0,0,.222-1.494l-.319-.747a7.108,7.108,0,0,0,.417-1.006l.76-.3a1.425,1.425,0,0,0,.891-1.187,7.3,7.3,0,0,0,0-1.471A1.431,1.431,0,0,0,59.063,44.567ZM58,46.706l-.88.351a1,1,0,0,0-.6.689,5.1,5.1,0,0,1-.589,1.419,1,1,0,0,0-.064.909l.373.873c-.09.1-.187.192-.293.29l-.87-.372a1,1,0,0,0-.909.064,5.106,5.106,0,0,1-1.418.589,1,1,0,0,0-.689.6l-.352.88c-.133.005-.271.005-.41,0l-.352-.879a1,1,0,0,0-.689-.6,5.106,5.106,0,0,1-1.418-.589,1,1,0,0,0-.909-.064l-.872.372c-.1-.09-.192-.186-.29-.292l.372-.871a1,1,0,0,0-.064-.909,5.1,5.1,0,0,1-.589-1.419,1,1,0,0,0-.6-.689L45,46.705q-.007-.2,0-.411l.88-.351a1,1,0,0,0,.6-.689,5.1,5.1,0,0,1,.589-1.419,1,1,0,0,0,.064-.909l-.373-.872c.09-.1.188-.193.293-.29l.87.371a1,1,0,0,0,.909-.064,5.106,5.106,0,0,1,1.418-.589,1,1,0,0,0,.689-.6L51.3,40c.134-.005.273-.005.41,0l.352.879a1,1,0,0,0,.689.6,5.106,5.106,0,0,1,1.418.589,1,1,0,0,0,.909.064l.872-.372c.095.09.192.186.29.293l-.372.87a1,1,0,0,0,.064.909,5.1,5.1,0,0,1,.589,1.419,1,1,0,0,0,.6.689L58,46.3Q58,46.5,58,46.706Z"/><path d="M51.5,43A3.5,3.5,0,1,0,55,46.5,3.5,3.5,0,0,0,51.5,43Zm0,5A1.5,1.5,0,1,1,53,46.5,1.5,1.5,0,0,1,51.5,48Z"/><path d="M35,26a1,1,0,0,0,0,2h6a1,1,0,0,0,0-2H39V18h2a1,1,0,0,0,0-2H35a1,1,0,0,0,0,2h2v8Z"/><path d="M18,28a1,1,0,0,0,1-1V23h3v4a1,1,0,0,0,2,0V19.5a3.5,3.5,0,0,0-7,0V27A1,1,0,0,0,18,28Zm2.5-10A1.5,1.5,0,0,1,22,19.5V21H19V19.5A1.5,1.5,0,0,1,20.5,18Z"/><path d="M27,28a1,1,0,0,0,1-1V23h1.5a3.5,3.5,0,0,0,0-7H27a1,1,0,0,0-1,1V27A1,1,0,0,0,27,28Zm1-10h1.5a1.5,1.5,0,0,1,0,3H28Z"/></svg>